<?xml version="1.0" encoding="UTF-8"?>
<svg version="1.1" xmlns="http://www.w3.org/2000/svg" width="1500" height="600">
<path d="M0 0 C495 0 990 0 1500 0 C1500 198 1500 396 1500 600 C1005 600 510 600 0 600 C0 402 0 204 0 0 Z " fill="#FDFDFD" transform="translate(0,0)"/>
<path d="M0 0 C25.73359337 22.87159884 45.44395984 56.39282369 47.89453125 91.33203125 C49.01098413 115.07554221 47.1128201 140.85020154 35.89453125 162.33203125 C35.58499512 162.94401367 35.27545898 163.55599609 34.95654297 164.18652344 C30.5026375 172.98824042 25.95963608 181.51332002 19.89453125 189.33203125 C19.2190625 190.20988281 18.54359375 191.08773437 17.84765625 191.9921875 C-3.88189077 219.38528667 -37.11418637 239.616087 -72.08666992 244.61523438 C-80.56996308 245.57750141 -89.07903548 245.57560196 -97.60546875 245.58203125 C-98.40949127 245.58270599 -99.21351379 245.58338074 -100.04190063 245.58407593 C-111.66753919 245.56856599 -122.78713677 245.2195975 -134.10546875 242.33203125 C-134.80542969 242.1604248 -135.50539063 241.98881836 -136.2265625 241.81201172 C-170.69319409 233.21839301 -202.41802884 210.03729596 -220.82910156 179.57324219 C-225.09460354 172.08332097 -228.63383241 164.2132608 -232.10546875 156.33203125 C-232.55921875 155.31496094 -233.01296875 154.29789063 -233.48046875 153.25 C-245.8782988 122.49757 -244.0965506 83.43737826 -231.4375 53.23046875 C-229.7999622 49.51918899 -227.98489848 45.92694045 -226.10546875 42.33203125 C-225.49960937 41.16285156 -224.89375 39.99367188 -224.26953125 38.7890625 C-206.58422835 5.75425143 -174.32953006 -18.36722251 -138.7734375 -29.19140625 C-91.67137129 -42.25477364 -37.03850753 -32.20689287 0 0 Z " fill="#232122" transform="translate(723.10546875,189.66796875)"/>
<path d="M0 0 C17.49 0 34.98 0 53 0 C53.01458252 4.91455078 53.02916504 9.82910156 53.04418945 14.89257812 C53.09462041 31.1654451 53.16108255 47.4382178 53.23571491 63.71099091 C53.2805574 73.57310411 53.31999829 83.43518214 53.34643555 93.29736328 C53.36950958 101.8996916 53.40301142 110.5019075 53.44870156 119.10414648 C53.47250774 123.65311151 53.49131865 128.20196606 53.49761391 132.75099182 C53.50372239 137.04546995 53.52392619 141.3396659 53.55427551 145.63403893 C53.56296447 147.19792905 53.56679766 148.76185619 53.56500816 150.32576942 C53.55423268 164.106165 54.72352161 177.81896096 60.75 190.4375 C61.09490479 191.18974854 61.43980957 191.94199707 61.79516602 192.71704102 C64.18680506 197.75888945 66.93330393 202.17764339 70.65234375 206.37109375 C72 208 72 208 73 211 C74.7416002 212.02613222 74.7416002 212.02613222 77 213 C78.55746734 213.93813548 80.1147786 214.87653536 81.67016602 215.81811523 C88.83479193 220.10263873 95.84162069 223.01370958 104 225 C104.75152344 225.19207031 105.50304687 225.38414062 106.27734375 225.58203125 C126.16441781 228.63499671 143.37413637 224.02253132 159.890625 213.0859375 C175.32898561 201.57820245 180.55880238 185.05705349 183.52330017 166.77233887 C184.35337003 159.96000338 184.1791745 153.07319829 184.20532227 146.22070312 C184.21491321 144.62348179 184.22492399 143.02626292 184.23532104 141.42904663 C184.26224445 137.11149215 184.28332164 132.79392688 184.30332303 128.47633553 C184.32526053 123.95730776 184.35261107 119.43831279 184.37937927 114.91931152 C184.42920154 106.37018142 184.474179 97.82103302 184.51740164 89.27186728 C184.56686371 79.53544873 184.62174845 69.7990631 184.67708123 60.06267643 C184.79074051 40.04181498 184.89761423 20.02092207 185 0 C213.55575895 -0.0233947 242.11151645 -0.04101141 270.66728306 -0.05181217 C283.92719913 -0.05696118 297.18710924 -0.06397724 310.44702148 -0.07543945 C322.00881086 -0.08542897 333.57059591 -0.09186357 345.13238949 -0.09408849 C351.25018184 -0.09538836 357.36796182 -0.09842823 363.4857502 -0.10573006 C369.25339329 -0.11255768 375.02101902 -0.11460333 380.78866577 -0.11310768 C382.89642875 -0.11338099 385.00419236 -0.11534588 387.11195183 -0.11920547 C415.14924763 -0.16799283 438.20064228 0.57093808 459.22607422 21.27001953 C461.08469504 23.08259689 462.97884373 24.85207003 464.87890625 26.62109375 C473.1040889 34.39514901 479.14789906 41.72971968 484 52 C484.56203125 53.17691406 485.1240625 54.35382813 485.703125 55.56640625 C491.41531612 68.19700361 493.49757057 79.46883451 493.375 93.3125 C493.38660156 94.61123047 493.39820313 95.90996094 493.41015625 97.24804688 C493.37092262 110.39785269 491.24227516 122.65207567 485.875 134.6875 C485.47958008 135.5846875 485.08416016 136.481875 484.67675781 137.40625 C481.30422267 144.79854749 477.47062382 150.93772565 472 157 C471.53110352 157.53028809 471.06220703 158.06057617 470.57910156 158.60693359 C458.8154398 171.75254009 445.39672382 178.97469787 429 185 C428.19433594 185.35191406 427.38867188 185.70382812 426.55859375 186.06640625 C423.17057401 187.30264551 419.73060802 187.90347303 416.1875 188.5 C415.53330078 188.61730469 414.87910156 188.73460937 414.20507812 188.85546875 C411.80790638 189.27023521 409.4051557 189.63432653 407 190 C405.96955566 190.17644043 404.93911133 190.35288086 403.87744141 190.53466797 C389.9815321 192.63965678 376.02042199 192.2168972 362 192.125 C353.09 192.08375 344.18 192.0425 335 192 C335 217.74 335 243.48 335 270 C317.51 270 300.02 270 282 270 C282 228.42 282 186.84 282 144 C338.25 143.625 338.25 143.625 355.95410156 143.52197266 C361.23093657 143.48202485 361.23093657 143.48202485 366.50775146 143.43954468 C368.84220034 143.42195997 371.17667932 143.40811125 373.51116943 143.39730835 C377.06519144 143.38011463 380.61893488 143.35073973 384.17285156 143.31884766 C385.19766758 143.31667551 386.2224836 143.31450336 387.27835464 143.3122654 C401.80553931 143.14589534 417.21198597 140.57031868 428 130 C433.63193663 123.54291917 435.86587007 116.17535928 438 108 C438.19335938 107.35417969 438.38671875 106.70835937 438.5859375 106.04296875 C441.14688055 93.4073724 438.10132251 80.14286195 432 69 C425.70385831 59.83492675 416.36463838 53.78832075 405.4375 51.625 C394.57653244 50.29191761 383.80547083 49.84031233 372.86816406 49.79467773 C371.3885777 49.78507397 369.90899394 49.77506253 368.42941284 49.76467896 C364.4509283 49.737894 360.47243222 49.71674333 356.49390888 49.69667697 C352.32190722 49.67465237 348.14994004 49.6473451 343.97796631 49.62062073 C336.09479059 49.57091469 328.2115955 49.52589491 320.32838225 49.48259836 C311.34638992 49.43303592 302.36443221 49.37818892 293.38247347 49.32291877 C274.92168121 49.20943829 256.46085618 49.10252676 238 49 C238.00444122 50.2916507 238.00888245 51.58330139 238.01345825 52.91409302 C238.05427917 65.18049408 238.08411486 77.44688107 238.10362434 89.71333504 C238.11399201 96.01725251 238.12802046 102.32111446 238.15087891 108.625 C238.17286075 114.72641407 238.18462114 120.82777526 238.18975449 126.92922592 C238.19340535 129.2388174 238.20053198 131.5484065 238.21146011 133.85797501 C238.38477686 172.06118826 234.79916693 212.50939272 206.66015625 241.31640625 C205.78230469 242.20199219 204.90445313 243.08757812 204 244 C203.29746094 244.75152344 202.59492187 245.50304687 201.87109375 246.27734375 C189.55832683 259.23684187 172.37804161 267.40230441 155.1875 271.625 C154.34896484 271.8415625 153.51042969 272.058125 152.64648438 272.28125 C121.64441713 280.00198004 80.82823221 276.38144483 53 260 C27.36928535 244.10094732 11.22068628 220.14258044 4 191 C0.64500434 175.99045288 -0.15194339 161.10730324 -0.11352539 145.76660156 C-0.1132427 144.16879274 -0.11340286 142.57098379 -0.1139679 140.97317505 C-0.11425266 136.67235832 -0.1084081 132.37156996 -0.10139394 128.07075977 C-0.0951067 123.56245381 -0.09455238 119.05414707 -0.09336853 114.5458374 C-0.09027096 106.02514909 -0.08207895 97.50447374 -0.07201904 88.98379111 C-0.06080881 79.27632325 -0.05533512 69.56885474 -0.05032361 59.86138201 C-0.0398949 39.90757918 -0.02156916 19.95379411 0 0 Z " fill="#232222" transform="translate(799,160)"/>
<path d="M0 0 C0.68143066 0.16016602 1.36286133 0.32033203 2.06494141 0.48535156 C6.11264272 1.4693347 10.05321293 2.67193421 14 4 C15.23234375 4.40734375 16.4646875 4.8146875 17.734375 5.234375 C30.86076387 9.76736989 43.57977417 16.08246324 55 24 C54.46695286 29.48892093 53.04718881 33.73032424 50.69140625 38.69140625 C50.36462387 39.39974106 50.03784149 40.10807587 49.70115662 40.83787537 C48.66351158 43.08351491 47.61372339 45.323189 46.5625 47.5625 C45.51697295 49.80629322 44.47412032 52.05127472 43.43455505 54.2978363 C42.78961257 55.6898526 42.14094694 57.08015215 41.4879303 58.46839905 C39.72731642 62.24917023 38.2368876 66.01695263 37 70 C36.11183594 69.61070312 35.22367188 69.22140625 34.30859375 68.8203125 C32.31022351 67.94450827 30.31131803 67.06998646 28.3112793 66.19799805 C23.95739342 64.29916676 19.61174682 62.38339979 15.2734375 60.44921875 C-4.82221348 51.5308641 -24.62115573 44.82759759 -46.875 44.8125 C-47.81730469 44.80025391 -48.75960937 44.78800781 -49.73046875 44.77539062 C-58.19179273 44.75783601 -65.55831472 45.77176973 -73 50 C-73.8146875 50.42410156 -74.629375 50.84820312 -75.46875 51.28515625 C-78.35834551 53.24276802 -79.54205276 54.97963015 -81.25 58 C-82.00023437 59.299375 -82.00023437 59.299375 -82.765625 60.625 C-86.05038532 66.94504517 -85.64876616 73.30132075 -83.875 80.0625 C-80.55237923 89.70257012 -75.56019408 93.66244954 -66.7043457 98.12353516 C-55.00019352 103.64085111 -42.31789864 106.83368188 -29.8125 109.9375 C-27.08591084 110.62634065 -24.36100318 111.32163551 -21.63671875 112.01953125 C-20.97422119 112.18922424 -20.31172363 112.35891724 -19.62915039 112.53375244 C36.03143878 126.87272896 36.03143878 126.87272896 50.92578125 151.44921875 C61.69612026 169.71583223 66.23529271 190.62040568 61.9375 211.6875 C58.4055583 224.59962176 52.75134614 235.82228844 44 246 C43.31292969 246.81082031 42.62585938 247.62164062 41.91796875 248.45703125 C26.53536697 265.20951222 -1.36624178 274.15382827 -23.60717773 275.3046875 C-28.59272684 275.47408455 -33.57476191 275.47401698 -38.5625 275.4375 C-39.44362457 275.43445862 -40.32474915 275.43141724 -41.23257446 275.42828369 C-54.85155884 275.35882034 -67.7871375 274.52185423 -81 271 C-81.90218262 270.76974121 -82.80436523 270.53948242 -83.73388672 270.30224609 C-94.14971524 267.61771708 -104.22486756 264.53025067 -114 260 C-115.28846059 259.44261697 -116.57757124 258.88673519 -117.8671875 258.33203125 C-129.05672865 253.41196437 -139.10866468 247.16408432 -149 240 C-149.62213379 239.58282715 -150.24426758 239.1656543 -150.88525391 238.73583984 C-152.58203125 237.51171875 -152.58203125 237.51171875 -155 235 C-155.37633602 229.41100977 -151.74552368 224.35350615 -149.0625 219.625 C-148.57612061 218.75391602 -148.08974121 217.88283203 -147.58862305 216.98535156 C-142.98963063 208.82357094 -138.07061159 200.87539674 -133 193 C-128.28425555 193.48994748 -125.33575767 195.69537259 -121.6875 198.5 C-103.88962461 211.67981641 -84.82525616 219.53422141 -63.25 224.1875 C-62.48236328 224.35451416 -61.71472656 224.52152832 -60.92382812 224.69360352 C-42.19517457 228.58472561 -20.73745721 230.11473274 -3.5 220.75 C3.0428125 216.23201579 6.36342606 208.5911853 8 201 C8.88063342 194.09454526 7.98715055 188.76207563 4 183 C1.54182045 180.20754907 1.54182045 180.20754907 -1 178 C-1.45753662 177.49766846 -1.91507324 176.99533691 -2.38647461 176.4777832 C-4.26020577 174.76168475 -5.87927855 174.05906036 -8.25390625 173.16796875 C-9.09840332 172.84755615 -9.94290039 172.52714355 -10.81298828 172.19702148 C-11.72032715 171.86387939 -12.62766602 171.5307373 -13.5625 171.1875 C-14.50851074 170.8356665 -15.45452148 170.48383301 -16.42919922 170.12133789 C-19.28173215 169.06832687 -22.13955002 168.03128757 -25 167 C-25.76328613 166.72220703 -26.52657227 166.44441406 -27.31298828 166.15820312 C-36.84468665 162.7207565 -46.49163488 160.04751176 -56.3125 157.5625 C-78.63014362 151.87825674 -101.29904001 145.51365601 -119 130 C-120.546875 128.88625 -120.546875 128.88625 -122.125 127.75 C-133.92370547 116.46428172 -139.70939303 98.09002542 -140.23828125 82.12109375 C-140.60879912 59.86177569 -136.69536851 43.44216637 -122 26 C-121.53078125 25.38640625 -121.0615625 24.7728125 -120.578125 24.140625 C-109.81672957 10.47728024 -90.47416216 3.00691382 -74 -1 C-72.99187256 -1.24556641 -72.99187256 -1.24556641 -71.96337891 -1.49609375 C-48.82620599 -6.78209408 -22.9338367 -5.45883835 0 0 Z " fill="#232122" transform="translate(395,160)"/>
<path d="M0 0 C1.02722168 0.0928125 1.02722168 0.0928125 2.07519531 0.1875 C26.64428189 2.76041977 50.31418965 16.06451969 66 35 C69.37262836 39.45406263 72.24589327 44.14519989 75 49 C75.42667969 49.72574219 75.85335937 50.45148438 76.29296875 51.19921875 C87.22689597 71.18191333 86.92028346 95.34292909 81.375 116.8125 C77.25127145 130.37058907 71.04232915 142.10501319 62 153 C61.49984375 153.65097656 60.9996875 154.30195313 60.484375 154.97265625 C47.66354636 171.1460579 25.56202024 182.1162304 5.1875 184.74609375 C-20.48649196 186.7912034 -43.95917691 180.59768608 -64 164 C-79.25637404 150.94673002 -88.81232348 137.18863983 -95 118 C-95.34289062 116.96101563 -95.68578125 115.92203125 -96.0390625 114.8515625 C-100.41816814 98.6038528 -100.57601164 77.60102073 -94 62 C-93.68804688 61.195625 -93.37609375 60.39125 -93.0546875 59.5625 C-92.12672701 57.31667965 -91.09886613 55.16699474 -90 53 C-89.56945312 52.12859375 -89.13890625 51.2571875 -88.6953125 50.359375 C-85.17823743 43.55335946 -80.98400731 37.79827062 -76 32 C-75.27167969 31.1028125 -74.54335938 30.205625 -73.79296875 29.28125 C-56.09097343 8.37939151 -27.11250258 -2.47767753 0 0 Z " fill="#FAFBF9" transform="translate(633,203)"/>
<path d="M0 0 C47.85 0 95.7 0 145 0 C145 20.89285714 145 20.89285714 142 28 C141.34 28 140.68 28 140 28 C139.9175 28.969375 139.835 29.93875 139.75 30.9375 C138.12018737 41.90569851 131.20218158 51.74729837 122.625 58.4375 C121.77164063 59.05496094 120.91828125 59.67242187 120.0390625 60.30859375 C117.73397729 61.91760234 117.73397729 61.91760234 117 65 C110.82759393 70.09541965 104.42462606 72.84784383 96.62890625 74.39453125 C94.06728784 74.83679737 94.06728784 74.83679737 92.34619141 76.01904297 C88.90567395 77.45754444 85.50225243 77.30518004 81.83203125 77.30078125 C80.64065804 77.30720894 80.64065804 77.30720894 79.42521667 77.31376648 C77.74499461 77.31950236 76.06474773 77.3200155 74.38452148 77.31567383 C71.83858701 77.31253219 69.29383623 77.33591711 66.74804688 77.36132812 C58.6056188 77.39348471 51.56225738 77.37093106 44 74 C42.63875 73.43539062 42.63875 73.43539062 41.25 72.859375 C21.38877408 63.06668722 9.06586504 46.54293031 2 26 C-0.71907859 17.28333657 0 9.3976804 0 0 Z " fill="#54B13C" transform="translate(554,290)"/>
<path d="M0 0 C47.85 0 95.7 0 145 0 C145 18 145 18 143 25 C142.67 25 142.34 25 142 25 C142 17.74 142 10.48 142 3 C140.02 3.33 138.04 3.66 136 4 C134.09050366 4.08392066 132.17858113 4.12207484 130.26724243 4.12025452 C128.58886795 4.12231651 128.58886795 4.12231651 126.87658691 4.12442017 C125.66386108 4.12082489 124.45113525 4.11722961 123.20166016 4.11352539 C121.91331268 4.11367142 120.62496521 4.11381744 119.2975769 4.1139679 C115.77736925 4.11425404 112.25719588 4.10838692 108.73699617 4.10139394 C105.05345618 4.09512991 101.36991535 4.09455419 97.68637085 4.09336853 C90.71670075 4.0902642 83.74704639 4.08206293 76.77738321 4.07201904 C68.84027513 4.06083 60.9031663 4.05534042 52.96605229 4.05032361 C36.64402566 4.03987955 20.32201484 4.02229752 4 4 C4.22312644 7.62716518 4.48351346 11.25078308 4.75 14.875 C4.811875 15.88820313 4.87375 16.90140625 4.9375 17.9453125 C5.41488019 24.15125492 6.53923599 29.2180133 9.14453125 34.88476562 C10.26326756 37.65095608 10.31012047 40.05385555 10 43 C3.88016268 36.88016268 1.02717367 24.32010672 0 16 C0 10.72 0 5.44 0 0 Z " fill="#78B867" transform="translate(554,290)"/>
<path d="M0 0 C13.2 0 26.4 0 40 0 C40 0.66 40 1.32 40 2 C32.4662847 4.76106944 25.67686782 5.46426668 17.6875 5.375 C16.10098633 5.39240234 16.10098633 5.39240234 14.48242188 5.41015625 C13.46083984 5.40628906 12.43925781 5.40242188 11.38671875 5.3984375 C10.01326294 5.39336182 10.01326294 5.39336182 8.61206055 5.38818359 C5.4683501 4.92099044 3.56698167 3.84534363 1 2 C0.67 1.34 0.34 0.68 0 0 Z " fill="#D3EEC9" transform="translate(605,366)"/>
<path d="M0 0 C-4.11188207 3.78874792 -7.93567852 5.20938554 -13.1875 6.6875 C-18.20301614 8.05394825 -18.20301614 8.05394825 -23 10 C-25.71312865 10.0990534 -28.39999954 10.13982406 -31.11328125 10.1328125 C-32.32312935 10.13424759 -32.32312935 10.13424759 -33.55741882 10.13571167 C-35.26638873 10.13639286 -36.97536122 10.13454282 -38.68432617 10.13037109 C-41.29156372 10.12504279 -43.89862735 10.13030732 -46.50585938 10.13671875 C-48.16666705 10.13605755 -49.82747461 10.13477552 -51.48828125 10.1328125 C-52.26553055 10.13483673 -53.04277985 10.13686096 -53.84358215 10.13894653 C-57.68644784 10.12244189 -61.26456063 9.9332806 -65 9 C-65 8.67 -65 8.34 -65 8 C-64.15405273 8.01047363 -63.30810547 8.02094727 -62.43652344 8.03173828 C-59.23829188 8.06622645 -56.04015642 8.09109357 -52.84179688 8.10986328 C-51.46871788 8.11979919 -50.09565933 8.13335261 -48.72265625 8.15087891 C-37.37996789 8.29183337 -26.93009434 7.07369747 -15.9375 4.3671875 C-14 4 -14 4 -10 4 C-10 3.01 -10 2.02 -10 1 C-6.78548731 -0.60725635 -3.56387464 -0.05748185 0 0 Z " fill="#6AAD56" transform="translate(667,357)"/>
<path d="M0 0 C0.33 0 0.66 0 1 0 C1.10957031 0.83660156 1.21914063 1.67320312 1.33203125 2.53515625 C3.07883559 17.99665087 3.07883559 17.99665087 7.5859375 32.7265625 C9.05445243 36.12605287 9.26744344 38.34493961 9 42 C6.30018575 39.30018575 5.29769112 36.11979762 3.9375 32.625 C3.66873047 31.95210938 3.39996094 31.27921875 3.12304688 30.5859375 C1.12400814 25.52104135 -0.13082387 21.45511429 -0.09765625 16.015625 C-0.09443359 15.08105469 -0.09121094 14.14648438 -0.08789062 13.18359375 C-0.07951172 12.21550781 -0.07113281 11.24742187 -0.0625 10.25 C-0.05798828 9.26644531 -0.05347656 8.28289062 -0.04882812 7.26953125 C-0.03706483 4.84629209 -0.02062684 2.42317727 0 0 Z " fill="#6DAF5B" transform="translate(555,291)"/>
<path d="M0 0 C-3.92731729 3.6299088 -7.70104376 5.05651165 -12.8125 6.25 C-13.50537109 6.42273438 -14.19824219 6.59546875 -14.91210938 6.7734375 C-16.60525594 7.19380492 -18.30227443 7.59852527 -20 8 C-20 7.34 -20 6.68 -20 6 C-16.38026598 4.68373308 -13.90432869 4 -10 4 C-10 3.01 -10 2.02 -10 1 C-6.78548731 -0.60725635 -3.56387464 -0.05748185 0 0 Z " fill="#70B15D" transform="translate(667,357)"/>
<path d="M0 0 C0.99 0.33 1.98 0.66 3 1 C2.01 1.495 2.01 1.495 1 2 C0.79685176 3.62518593 0.59735121 5.25092577 0.41796875 6.87890625 C-0.36187453 10.83642868 -2.24169618 14.39343263 -4 18 C-4.33 18 -4.66 18 -5 18 C-5 16.02 -5 14.04 -5 12 C-4.34 12 -3.68 12 -3 12 C-2.86722656 11.30132812 -2.73445312 10.60265625 -2.59765625 9.8828125 C-2.42105469 8.97273438 -2.24445312 8.06265625 -2.0625 7.125 C-1.88847656 6.22007812 -1.71445312 5.31515625 -1.53515625 4.3828125 C-1 2 -1 2 0 0 Z " fill="#6BB058" transform="translate(693,316)"/>
<path d="M0 0 C-2.13790949 2.35170044 -4.00593401 3.88791835 -7 5 C-10.25 5.125 -10.25 5.125 -13 5 C-13 4.34 -13 3.68 -13 3 C-4.57142857 -0.42857143 -4.57142857 -0.42857143 0 0 Z " fill="#D6F0CA" transform="translate(659,362)"/>
<path d="M0 0 C0.8125 1.6875 0.8125 1.6875 1 4 C-1.125 6.75 -1.125 6.75 -4 9 C-6.8125 9.3125 -6.8125 9.3125 -9 9 C-6 6 -3 3 0 0 Z " fill="#D5F2CA" transform="translate(680,344)"/>
<path d="M0 0 C0.66 0.33 1.32 0.66 2 1 C1.67 4.3 1.34 7.6 1 11 C-0.32 11.33 -1.64 11.66 -3 12 C-2.01 8.04 -1.02 4.08 0 0 Z " fill="#D2EDC7" transform="translate(694,318)"/>
<path d="M0 0 C1.66832577 2.50248865 2.62381674 4.41149187 3.625 7.1875 C4.01558594 8.26064453 4.01558594 8.26064453 4.4140625 9.35546875 C4.60742188 9.89816406 4.80078125 10.44085938 5 11 C4.01 11 3.02 11 2 11 C0.80712589 7.12315913 0 4.08378077 0 0 Z " fill="#CFEDC3" transform="translate(558,321)"/>
</svg>
